<svg xmlns="http://www.w3.org/2000/svg" width="1200" height="630" viewBox="0 0 1200 630">
  <defs>
    <radialGradient id="glow" cx="0.18" cy="-0.1" r="1">
      <stop offset="0%" stop-color="#1d4836"/>
      <stop offset="45%" stop-color="#0e1713"/>
      <stop offset="100%" stop-color="#0b0e13"/>
    </radialGradient>
  </defs>
  <rect width="1200" height="630" fill="url(#glow)"/>
  <!-- Dot grid -->
  <g fill="#27313d" opacity="0.5">
    <circle cx="80" cy="520" r="2"/><circle cx="140" cy="520" r="2"/><circle cx="200" cy="520" r="2"/>
    <circle cx="80" cy="560" r="2"/><circle cx="140" cy="560" r="2"/><circle cx="200" cy="560" r="2"/>
    <circle cx="1000" cy="90" r="2"/><circle cx="1060" cy="90" r="2"/><circle cx="1120" cy="90" r="2"/>
    <circle cx="1000" cy="130" r="2"/><circle cx="1060" cy="130" r="2"/><circle cx="1120" cy="130" r="2"/>
  </g>
  <!-- Shield mark -->
  <g transform="translate(88, 200) scale(4.2)" fill="none" stroke="#34b87a" stroke-width="2" stroke-linecap="round" stroke-linejoin="round">
    <path d="M12 22s8-4 8-10V5l-8-3-8 3v7c0 6 8 10 8 10z" fill="#34b87a" fill-opacity="0.12"/>
  </g>
  <!-- Wordmark + tagline -->
  <text x="220" y="268" font-family="Inter, system-ui, sans-serif" font-size="76" font-weight="700" letter-spacing="-2" fill="#e8edf4">Spectra</text>
  <text x="92" y="372" font-family="Inter, system-ui, sans-serif" font-size="34" font-weight="500" fill="#9aa7b4">Autonomous pentesting with evidence</text>
  <text x="92" y="418" font-family="Inter, system-ui, sans-serif" font-size="34" font-weight="500" fill="#9aa7b4">for every finding.</text>
  <!-- Mono accent line -->
  <text x="92" y="500" font-family="'JetBrains Mono', ui-monospace, monospace" font-size="20" fill="#34b87a">proof: verified · consensus 3/3</text>
</svg>
